<svg xmlns="http://www.w3.org/2000/svg" version="1.1" xmlns:xlink="http://www.w3.org/1999/xlink" xmlns:svgjs="http://svgjs.dev/svgjs" width="1000" height="1000" viewBox="0 0 1000 1000"><rect width="1000" height="1000" fill="#000000"></rect><g transform="matrix(0.7,0,0,0.7,149.57575757575756,405.29112921275106)"><svg viewBox="0 0 396 107" data-background-color="#ffffff" preserveAspectRatio="xMidYMid meet" height="270" width="1000" xmlns="http://www.w3.org/2000/svg" xmlns:xlink="http://www.w3.org/1999/xlink"><g id="tight-bounds" transform="matrix(1,0,0,1,0.2400000000000091,0.11824959913033695)"><svg viewBox="0 0 395.52 106.76350080173934" height="106.76350080173934" width="395.52"><g><svg viewBox="0 0 563.15479661019 152.01349509353605" height="106.76350080173934" width="395.52"><g transform="matrix(1,0,0,1,167.63479661019005,42.92142435285169)"><svg viewBox="0 0 395.52 66.17064638783268" height="66.17064638783268" width="395.52"><g id="textblocktransform"><svg viewBox="0 0 395.52 66.17064638783268" height="66.17064638783268" width="395.52" id="textblock"><g><svg viewBox="0 0 395.52 66.17064638783268" height="66.17064638783268" width="395.52"><g transform="matrix(1,0,0,1,0,0)"><svg width="395.52" viewBox="4.699999809265137 -35.150001525878906 210.3800048828125 35.20000076293945" height="66.17064638783268" data-palette-color="#919591"><path d="M6.9-2.95L24.05-2.95Q24.65-2.95 25.1-2.53 25.55-2.1 25.55-1.5L25.55-1.5Q25.55-0.85 25.1-0.43 24.65 0 24.05 0L24.05 0 6.2 0Q5.55 0 5.13-0.45 4.7-0.9 4.7-1.5L4.7-1.5 4.7-33.5Q4.7-34.1 5.15-34.55 5.6-35 6.3-35L6.3-35Q6.9-35 7.38-34.55 7.85-34.1 7.85-33.5L7.85-33.5 7.85-2.1 6.9-2.95ZM34.45-33.45L34.45-1.55Q34.4-0.9 33.92-0.45 33.45 0 32.85 0L32.85 0Q32.15 0 31.72-0.45 31.3-0.9 31.3-1.55L31.3-1.55 31.3-33.45Q31.3-34.1 31.75-34.55 32.2-35 32.9-35L32.9-35Q33.5-35 33.97-34.55 34.45-34.1 34.45-33.45L34.45-33.45ZM69.09-35.05L69.09-35.05Q69.8-35.05 70.22-34.65 70.64-34.25 70.64-33.65L70.64-33.65Q70.64-33.3 70.5-32.9L70.5-32.9 57.14-1Q56.89-0.5 56.5-0.25 56.09 0 55.7 0L55.7 0Q55.25 0 54.84-0.25 54.45-0.5 54.3-0.95L54.3-0.95 40.99-32.8Q40.95-32.95 40.89-33.15 40.84-33.35 40.84-33.6L40.84-33.6Q40.84-34.25 41.32-34.65 41.8-35.05 42.3-35.05L42.3-35.05Q43.34-35.05 43.8-33.95L43.8-33.95 56.3-4.05 55.39-4.05 67.69-34.05Q68.19-35.05 69.09-35.05ZM78.74 0L78.74 0Q77.99 0 77.52-0.45 77.04-0.9 77.04-1.5L77.04-1.5 77.04-33.5Q77.04-34.1 77.49-34.55 77.94-35 78.54-35L78.54-35 92.04-35Q94.89-35 97.14-33.77 99.39-32.55 100.67-30.4 101.94-28.25 101.94-25.55L101.94-25.55Q101.94-23.35 101.14-21.5 100.34-19.65 98.89-18.38 97.44-17.1 95.64-16.5L95.64-16.5 93.89-17.05Q95.74-16.9 97.34-15.88 98.94-14.85 99.92-13.08 100.89-11.3 100.94-8.8L100.94-8.8Q100.99-6.65 101.17-5.45 101.34-4.25 101.69-3.65 102.04-3.05 102.59-2.7L102.59-2.7Q103.09-2.4 103.27-1.85 103.44-1.3 103.14-0.8L103.14-0.8Q102.94-0.4 102.57-0.23 102.19-0.05 101.79-0.05 101.39-0.05 100.99-0.25L100.99-0.25Q100.29-0.65 99.57-1.5 98.84-2.35 98.37-4 97.89-5.65 97.89-8.6L97.89-8.6Q97.89-10.55 97.27-11.8 96.64-13.05 95.67-13.73 94.69-14.4 93.52-14.68 92.34-14.95 91.29-14.95L91.29-14.95 79.64-14.95 80.19-15.65 80.19-1.5Q80.19-0.9 79.79-0.45 79.39 0 78.74 0ZM80.19-17L79.64-17.7 92.19-17.7Q93.89-17.85 95.39-18.82 96.89-19.8 97.82-21.5 98.74-23.2 98.74-25.45L98.74-25.45Q98.74-28.3 96.82-30.18 94.89-32.05 91.79-32.05L91.79-32.05 79.84-32.05 80.19-32.75 80.19-17ZM121.34-31.35L122.24-31.15 110.09-0.95Q109.89-0.45 109.54-0.2 109.19 0.05 108.74 0.05L108.74 0.05Q108.04 0.05 107.69-0.33 107.34-0.7 107.29-1.25L107.29-1.25Q107.24-1.5 107.34-1.85L107.34-1.85 120.54-34.15Q120.79-34.7 121.17-34.93 121.54-35.15 122.04-35.15L122.04-35.15Q122.54-35.15 122.92-34.88 123.29-34.6 123.49-34.15L123.49-34.15 136.64-2Q136.74-1.7 136.74-1.4L136.74-1.4Q136.74-0.7 136.29-0.33 135.84 0.05 135.24 0.05L135.24 0.05Q134.74 0.05 134.37-0.23 133.99-0.5 133.79-0.95L133.79-0.95 121.34-31.35ZM130.34-10.1L112.99-10.1 114.24-13.05 129.74-13.05 130.34-10.1ZM144.59 0L144.59 0Q143.84 0 143.36-0.45 142.89-0.9 142.89-1.5L142.89-1.5 142.89-33.5Q142.89-34.1 143.34-34.55 143.79-35 144.39-35L144.39-35 157.89-35Q160.74-35 162.99-33.77 165.24-32.55 166.51-30.4 167.79-28.25 167.79-25.55L167.79-25.55Q167.79-23.35 166.99-21.5 166.19-19.65 164.74-18.38 163.29-17.1 161.49-16.5L161.49-16.5 159.74-17.05Q161.59-16.9 163.19-15.88 164.79-14.85 165.76-13.08 166.74-11.3 166.79-8.8L166.79-8.8Q166.84-6.65 167.01-5.45 167.19-4.25 167.54-3.65 167.89-3.05 168.44-2.7L168.44-2.7Q168.94-2.4 169.11-1.85 169.29-1.3 168.99-0.8L168.99-0.8Q168.79-0.4 168.41-0.23 168.04-0.05 167.64-0.05 167.24-0.05 166.84-0.25L166.84-0.25Q166.14-0.65 165.41-1.5 164.69-2.35 164.21-4 163.74-5.65 163.74-8.6L163.74-8.6Q163.74-10.55 163.11-11.8 162.49-13.05 161.51-13.73 160.54-14.4 159.36-14.68 158.19-14.95 157.14-14.95L157.14-14.95 145.49-14.95 146.04-15.65 146.04-1.5Q146.04-0.9 145.64-0.45 145.24 0 144.59 0ZM146.04-17L145.49-17.7 158.04-17.7Q159.74-17.85 161.24-18.82 162.74-19.8 163.66-21.5 164.59-23.2 164.59-25.45L164.59-25.45Q164.59-28.3 162.66-30.18 160.74-32.05 157.64-32.05L157.64-32.05 145.69-32.05 146.04-32.75 146.04-17ZM179.53-33.45L179.53-1.55Q179.49-0.9 179.01-0.45 178.53 0 177.94 0L177.94 0Q177.24 0 176.81-0.45 176.38-0.9 176.38-1.55L176.38-1.55 176.38-33.45Q176.38-34.1 176.84-34.55 177.28-35 177.99-35L177.99-35Q178.59-35 179.06-34.55 179.53-34.1 179.53-33.45L179.53-33.45ZM199.68-31.35L200.58-31.15 188.43-0.95Q188.23-0.45 187.88-0.2 187.53 0.05 187.08 0.05L187.08 0.05Q186.38 0.05 186.03-0.33 185.68-0.7 185.63-1.25L185.63-1.25Q185.58-1.5 185.68-1.85L185.68-1.85 198.88-34.15Q199.13-34.7 199.51-34.93 199.88-35.15 200.38-35.15L200.38-35.15Q200.88-35.15 201.26-34.88 201.63-34.6 201.83-34.15L201.83-34.15 214.98-2Q215.08-1.7 215.08-1.4L215.08-1.4Q215.08-0.7 214.63-0.33 214.18 0.05 213.58 0.05L213.58 0.05Q213.08 0.05 212.71-0.23 212.33-0.5 212.13-0.95L212.13-0.95 199.68-31.35ZM208.68-10.1L191.33-10.1 192.58-13.05 208.08-13.05 208.68-10.1Z" opacity="1" transform="matrix(1,0,0,1,0,0)" fill="#ffffff" class="wordmark-text-0" data-fill-palette-color="primary" id="text-0"></path></svg></g></svg></g></svg></g></svg></g><g><svg viewBox="0 0 152.01349509353605 152.01349509353605" height="152.01349509353605" width="152.01349509353605"><g><svg></svg></g><g id="icon-0"><svg viewBox="0 0 152.01349509353605 152.01349509353605" height="152.01349509353605" width="152.01349509353605"><g><rect width="138.21967794615963" height="138.21967794615963" x="6.896908573688208" y="6.896908573688208" fill="#ffffff" data-fill-palette-color="accent"></rect><rect width="138.21967794615963" height="138.21967794615963" x="13.793817147376416" y="-8.881784197001252e-16" fill="#ffffff" opacity="0.5" data-fill-palette-color="accent"></rect></g><g transform="matrix(1,0,0,1,19.7054530676806,41.40644190585722)"><svg viewBox="0 0 112.60258895817485 69.20061128182161" height="69.20061128182161" width="112.60258895817485"><g><svg xmlns="http://www.w3.org/2000/svg" data-name="Layer 1" viewBox="2.4305503368377686 20.79172134399414 95.13905334472656 58.46828842163086" x="0" y="0" height="69.20061128182161" width="112.60258895817485" class="icon-s-0" data-fill-palette-color="background" id="s-0"><path d="M62.78 23l32 55.42 1.3-2.26h-64l1.3 2.26L65.37 23a1.5 1.5 0 0 0-2.59-1.51L30.79 77a1.51 1.51 0 0 0 1.3 2.26h64A1.51 1.51 0 0 0 97.37 77l-32-55.42A1.5 1.5 0 0 0 62.78 23Z" fill="#ffffff" data-fill-palette-color="background"></path><path d="M34.63 23l32 55.42 1.3-2.26h-64l1.3 2.26L37.22 23a1.5 1.5 0 0 0-2.59-1.51L2.63 77a1.51 1.51 0 0 0 1.3 2.26h64A1.51 1.51 0 0 0 69.21 77l-32-55.42A1.5 1.5 0 0 0 34.63 23Z" fill="#ffffff" data-fill-palette-color="background"></path></svg></g></svg></g></svg></g></svg></g></svg></g><defs></defs></svg><rect width="395.52" height="106.76350080173934" fill="none" stroke="none" visibility="hidden"></rect></g></svg></g></svg>